<svg width="71" height="36" viewBox="0 0 71 36" fill="none" xmlns="http://www.w3.org/2000/svg">
<path d="M28.1876 4.86255L32.1251 2.16255C32.6876 1.82505 33.4751 1.93755 33.8126 2.61255L35.05 4.86255" stroke="black" stroke-width="2.25" stroke-miterlimit="10" stroke-linecap="round" stroke-linejoin="round"/>
<path d="M22.45 29.1625L45.625 29.6125M66.8875 29.6125C67.9 29.3875 68.8 29.05 68.9125 28.4875C69.025 27.3625 69.25 24.2125 69.25 22.75C69.25 22.1875 69.1375 21.5125 68.8 21.0625C67.5625 18.8125 63.4 13.4125 52.0375 13.8625L40.45 6.10004C39.8875 5.76254 39.2125 5.53754 38.65 5.53754L16.6 5.42504C16.2625 5.42504 15.925 5.42504 15.5875 5.53754C13.1125 6.21254 2.425 10.0375 3.8875 19.7125L2.65 20.3875C2.0875 20.6125 1.6375 21.175 1.525 21.7375C1.075 23.3125 1.1875 25 1.75 26.575" stroke="black" stroke-width="2.25" stroke-linecap="round" stroke-linejoin="round"/>
<path d="M47.9873 16.675L14.0123 16.45V11.3875" stroke="black" stroke-width="2.25" stroke-linecap="round" stroke-linejoin="round"/>
<path d="M56.5376 34.1125C53.431 34.1125 50.9126 31.5941 50.9126 28.4875C50.9126 25.3809 53.431 22.8625 56.5376 22.8625C59.6442 22.8625 62.1626 25.3809 62.1626 28.4875C62.1626 31.5941 59.6442 34.1125 56.5376 34.1125Z" stroke="black" stroke-width="2.25" stroke-linecap="round" stroke-linejoin="round"/>
<path d="M11.7625 34.1125C8.65585 34.1125 6.13745 31.5941 6.13745 28.4875C6.13745 25.3809 8.65585 22.8625 11.7625 22.8625C14.8691 22.8625 17.3875 25.3809 17.3875 28.4875C17.3875 31.5941 14.8691 34.1125 11.7625 34.1125Z" stroke="black" stroke-width="2.25" stroke-linecap="round" stroke-linejoin="round"/>
<path d="M62.1624 20.0501L64.1874 22.5251L68.3499 22.4126" stroke="black" stroke-width="2.25" stroke-linecap="round" stroke-linejoin="round"/>
<path d="M48.8875 20.6125H19.6375" stroke="black" stroke-width="2.25" stroke-miterlimit="10" stroke-linecap="round" stroke-linejoin="round"/>
</svg>